<svg width="16" height="16" viewBox="0 0 16 16" fill="none" xmlns="http://www.w3.org/2000/svg">
<mask id="mask0_1580_749" style="mask-type:alpha" maskUnits="userSpaceOnUse" x="0" y="0" width="15" height="16">
<path d="M5.15625 7.20312C4.89258 7.20312 4.6875 6.99805 4.6875 6.73438V6.26562C4.6875 6.03125 4.89258 5.79688 5.15625 5.79688H9.84375C10.0781 5.79688 10.3125 6.03125 10.3125 6.26562V6.73438C10.3125 6.99805 10.0781 7.20312 9.84375 7.20312H5.15625ZM4.6875 9.54688V9.07812C4.6875 8.84375 4.89258 8.60938 5.15625 8.60938H9.84375C10.0781 8.60938 10.3125 8.84375 10.3125 9.07812V9.54688C10.3125 9.81055 10.0781 10.0156 9.84375 10.0156H5.15625C4.89258 10.0156 4.6875 9.81055 4.6875 9.54688ZM7.5 13.1211C7.96875 13.1211 8.4375 12.9746 8.84766 12.6523L15 8.22852V14.4688C15 15.2598 14.3555 15.875 13.5938 15.875H1.40625C0.615234 15.875 0 15.2598 0 14.4688V8.22852L6.12305 12.6523C6.5332 12.9746 7.00195 13.1211 7.5 13.1211ZM14.4434 5.65039C14.7949 5.94336 15 6.32422 15 6.76367V7.08594L12.1875 9.10742V3.6875H2.8125V9.10742L0 7.08594V6.76367C0 6.32422 0.205078 5.91406 0.527344 5.65039C0.791016 5.47461 1.02539 5.26953 1.40625 5.00586V3.6875C1.40625 2.92578 2.02148 2.28125 2.8125 2.28125H5.06836C5.15625 2.22266 5.24414 2.16406 5.33203 2.10547C5.83008 1.75391 6.79688 0.875 7.5 0.875C8.17383 0.875 9.14062 1.75391 9.63867 2.10547C9.72656 2.16406 9.81445 2.22266 9.90234 2.28125H12.1875C12.9492 2.28125 13.5938 2.92578 13.5938 3.6875V5.00586C13.9453 5.26953 14.1797 5.47461 14.4434 5.65039Z" fill="#F0F0F0"/>
</mask>
<g mask="url(#mask0_1580_749)">
<rect x="-5" y="-3" width="24" height="22" fill="#359B41"/>
</g>
</svg>
