<svg width="19" height="16" viewBox="0 0 19 16" fill="none" xmlns="http://www.w3.org/2000/svg">
<mask id="mask0_1580_751" style="mask-type:alpha" maskUnits="userSpaceOnUse" x="-1" y="0" width="20" height="16">
<path d="M17.6367 4.36133C18.6035 5.94336 17.7246 8.11133 15.9082 8.3457C15.7617 8.375 15.6445 8.375 15.498 8.375C14.6191 8.375 13.8574 7.99414 13.3301 7.4082C12.8027 7.99414 12.041 8.375 11.1621 8.375C10.3125 8.375 9.52148 7.99414 8.99414 7.4082C8.4668 7.99414 7.70508 8.375 6.85547 8.375C5.97656 8.375 5.21484 7.99414 4.6875 7.4082C4.16016 7.99414 3.39844 8.375 2.51953 8.375C2.37305 8.375 2.25586 8.375 2.10938 8.3457C0.292969 8.11133 -0.585938 5.94336 0.410156 4.36133L2.28516 1.31445C2.46094 1.05078 2.7832 0.875 3.10547 0.875H14.9414C15.2637 0.875 15.5566 1.05078 15.7324 1.31445L17.6367 4.36133ZM15.498 9.3125C15.6738 9.3125 15.8496 9.3125 16.0254 9.2832C16.2012 9.2832 16.3477 9.22461 16.5234 9.19531V14.9375C16.5234 15.4648 16.084 15.875 15.5859 15.875H2.46094C1.93359 15.875 1.52344 15.4648 1.52344 14.9375V9.19531C1.66992 9.22461 1.81641 9.25391 1.99219 9.2832C2.16797 9.3125 2.34375 9.3125 2.51953 9.3125C2.8125 9.3125 3.10547 9.2832 3.39844 9.22461V12.125H14.6484V9.22461C14.9121 9.2832 15.2051 9.3125 15.498 9.3125Z" fill="#F0F0F0"/>
</mask>
<g mask="url(#mask0_1580_751)">
<rect y="-2" width="21" height="21" fill="#359B41"/>
</g>
</svg>
